<?xml version="1.0" standalone="no"?>
<!DOCTYPE svg PUBLIC "-//W3C//DTD SVG 20010904//EN"
 "http://www.w3.org/TR/2001/REC-SVG-20010904/DTD/svg10.dtd">
<svg version="1.0" xmlns="http://www.w3.org/2000/svg"
 width="512.000000pt" height="512.000000pt" viewBox="0 0 512.000000 512.000000"
 preserveAspectRatio="xMidYMid meet">
<metadata>
Created by potrace 1.14, written by Peter Selinger 2001-2017
</metadata>
<g transform="translate(0.000000,512.000000) scale(0.100000,-0.100000)"
fill="#000000" stroke="none">
<path d="M440 5080 c-19 -19 -20 -33 -20 -239 l0 -218 -61 -7 c-159 -16 -288
-133 -329 -297 -8 -31 -10 -479 -8 -1549 l3 -1505 32 -66 c53 -107 170 -197
278 -213 22 -3 392 -5 823 -6 l782 0 0 -260 0 -260 -220 0 c-207 0 -221 -1
-240 -20 -19 -19 -20 -33 -20 -200 0 -167 1 -181 20 -200 20 -20 33 -20 1080
-20 1047 0 1060 0 1080 20 19 19 20 33 20 200 0 167 -1 181 -20 200 -19 19
-33 20 -240 20 l-220 0 0 260 0 260 793 1 c435 0 805 3 822 5 90 15 207 101
255 189 52 94 50 20 47 1645 -2 1476 -2 1516 -21 1555 -11 22 -20 43 -20 47
-1 4 -25 34 -54 67 -63 72 -146 116 -239 127 l-63 7 0 218 c0 206 -1 220 -20
239 -20 20 -33 20 -2120 20 -2087 0 -2100 0 -2120 -20z"/>
</g>
</svg>
